# xmcd
#
# Track frame offsets:
#	150
#	16747
#	36352
#	50475
#	72310
#	94835
#	111415
#	132490
#	156605
#	175275
#	200930
#	211755
#	224735
#
# Disc length: 3147 seconds
#
# Revision: 0
# Processed by: cddbd v1.5.2PL0 Copyright (c) Steve Scherf et al.
# Submitted via: EasyCDDAExtractor 16.0.6.1
#
DISCID=d10c490d
DTITLE=Στέλλα Γαδέδη ‎ -  Το Βιβλίο Της Μνήμης
DYEAR=2001
DGENRE=
TTITLE0=Ο ΜΥΣΤΙΚΟΣ ΚΗΠΟΣ	
TTITLE1=ΜΕΡΑ ΜΕΡΩΣΕ	
TTITLE2=ΛΥΠΗΜΕΝΑ ΔΕΙΛΙΝΑ	
TTITLE3=ΤΖΙΑ-ΑΘΗΝΑ	
TTITLE4=ΣΤΗ ΜΕΣΗ ΤΗΣ ΝΥΧΤΑΣ	
TTITLE5=ΤΡΑΓΟΥΔΙ ΤΟ ΦΘΙΝΟΠΩΡΟ	
TTITLE6=Ο ΑΜΑΡΑΝΤΟΣ	
TTITLE7=ΤΟ ΒΙΒΛΙΟ ΤΗΣ ΜΝΗΜΗΣ	
TTITLE8=ΡΟΥΣΑ ΠΑΠΑΔΙΑ	
TTITLE9=ΑΝΑΤΟΛΗ.....ΔΥΣΗ	
TTITLE10=ΘΑΛΑΣΣΙΝΗ ΥΠΝΟΒΑΤΙΣΣΑ
TTITLE11=ΜΕ ΤΟ ΦΕΓΓΑΡΙ ΠΕΡΠΑΤΩ	
TTITLE12=ΑΠ' ΤΙΣ ΚΥΚΛΑΔΕΣ ΣΤΗΝ ΑΝΑΓΕΝΝΗΣΗ (ορχηστρικό)	
EXTD=
EXTT0=
EXTT1=
EXTT2=
EXTT3=
EXTT4=
EXTT5=
EXTT6=
EXTT7=
EXTT8=
EXTT9=
EXTT10=
EXTT11=
EXTT12=
PLAYORDER=
